<?xml version="1.0" standalone="no"?>
<!DOCTYPE svg PUBLIC "-//W3C//DTD SVG 20010904//EN"
 "http://www.w3.org/TR/2001/REC-SVG-20010904/DTD/svg10.dtd">
<svg version="1.0" xmlns="http://www.w3.org/2000/svg"
 width="612.000000pt" height="612.000000pt" viewBox="0 0 612.000000 612.000000"
 preserveAspectRatio="xMidYMid meet">
<metadata>
Created by potrace 1.14, written by Peter Selinger 2001-2017
</metadata>
<g transform="translate(0.000000,612.000000) scale(0.100000,-0.100000)"
fill="#000000" stroke="none">
<path d="M3008 4554 c-2 -1 -30 -5 -63 -8 -88 -9 -135 -16 -175 -26 -34 -8
-230 -74 -260 -87 -8 -3 -18 -7 -22 -7 -3 -1 -9 -4 -13 -8 -4 -4 -13 -4 -20
-1 -8 2 -27 -8 -43 -24 -16 -15 -48 -44 -71 -63 -24 -19 -72 -62 -107 -96 -35
-33 -64 -58 -65 -55 0 3 -4 -2 -8 -12 -4 -10 -9 -17 -12 -15 -6 4 -66 -64 -67
-75 0 -5 -15 -22 -32 -38 -17 -16 -28 -34 -25 -39 4 -6 -1 -10 -9 -10 -9 0
-16 -7 -16 -15 0 -7 -6 -18 -12 -22 -19 -12 -61 -75 -61 -90 0 -7 -4 -13 -8
-13 -7 0 -19 -36 -18 -54 1 -5 -4 -12 -9 -15 -6 -3 -12 -13 -14 -21 -2 -8 -9
-21 -16 -29 -8 -8 -11 -27 -9 -46 2 -17 -2 -43 -9 -56 -12 -22 -13 -22 -14 -4
-1 11 -4 14 -7 7 -3 -7 1 -19 8 -28 9 -11 9 -18 1 -26 -7 -7 -12 -20 -12 -29
0 -10 -4 -21 -10 -24 -6 -3 -7 1 -4 9 3 9 4 16 1 16 -9 0 -35 -102 -42 -162
-4 -38 -2 -59 6 -64 8 -5 9 -3 4 6 -6 9 -4 11 5 5 10 -6 9 -11 -4 -21 -18 -12
-30 -64 -16 -64 9 0 8 -20 -3 -37 -4 -6 -1 -14 5 -16 10 -4 10 -6 1 -6 -7 -1
-10 -7 -8 -13 2 -7 6 -40 9 -73 8 -97 17 -148 32 -176 7 -15 11 -29 8 -31 -2
-3 1 -18 7 -34 13 -31 15 -39 17 -67 1 -10 12 -22 25 -27 12 -5 16 -9 10 -9
-7 -1 -13 -6 -13 -12 0 -13 94 -203 110 -222 6 -6 35 -45 65 -86 89 -120 284
-294 331 -294 7 0 12 -5 11 -11 -4 -22 248 -133 343 -150 14 -2 32 -7 40 -10
69 -26 302 -39 410 -23 106 15 130 20 130 28 0 4 13 7 28 7 40 -1 94 19 197
72 117 60 162 91 168 113 4 13 2 15 -7 8 -6 -5 -23 -12 -36 -15 -32 -6 -92
-27 -105 -36 -19 -13 -80 -32 -196 -59 -106 -25 -132 -28 -280 -25 -168 2
-178 3 -289 30 -202 50 -416 171 -562 321 -70 71 -162 186 -187 233 -46 87
-56 105 -62 110 -3 3 -12 22 -18 43 -7 20 -17 37 -22 37 -6 0 -8 4 -5 9 3 4
-4 34 -15 66 -11 32 -27 97 -36 144 -9 47 -20 92 -26 99 -5 7 -6 12 0 12 5 0
8 15 6 33 -7 66 1 279 11 296 2 3 7 27 11 51 8 51 13 74 15 78 4 4 7 21 9 40
2 27 26 56 40 48 9 -6 9 -12 -3 -25 -13 -14 -13 -20 -3 -31 10 -10 9 -11 -3
-5 -13 8 -13 6 -2 -7 7 -9 9 -18 5 -20 -4 -3 -1 -3 7 0 8 3 22 4 31 4 9 0 16
6 16 13 0 10 -5 11 -19 4 -19 -10 -27 4 -8 16 6 4 8 11 5 16 -4 5 -2 9 3 9 6
0 8 9 5 20 -3 11 0 20 6 20 6 0 11 11 11 25 0 14 4 25 10 25 5 0 7 6 4 14 -3
8 5 21 18 30 31 22 45 20 23 -4 -10 -11 -19 -34 -21 -52 -2 -17 -8 -35 -14
-38 -14 -9 -19 -53 -8 -67 7 -9 7 -13 -1 -13 -6 0 -10 -3 -10 -7 1 -5 0 -10
-1 -13 -7 -19 -7 -39 1 -34 5 3 6 10 3 16 -5 8 -1 9 10 5 10 -4 15 -3 11 3 -3
6 -1 10 5 10 6 0 9 4 5 9 -3 5 -1 12 4 15 5 4 8 18 5 31 -2 14 0 25 6 25 5 0
10 5 10 11 0 5 -6 7 -12 4 -7 -4 -6 -1 2 7 21 18 23 38 5 38 -19 0 -19 16 0
24 8 3 14 11 13 18 -2 7 3 12 10 11 6 -2 12 1 12 6 0 11 -29 23 -40 16 -5 -3
-12 0 -16 7 -4 7 -4 10 1 6 10 -9 38 19 30 32 -3 5 4 19 16 31 19 19 22 20 37
5 18 -17 8 -47 -16 -52 -7 -1 -8 0 -3 2 6 3 7 13 4 22 -4 15 -3 15 6 2 13 -18
15 -1 2 18 -6 10 -11 5 -20 -19 -15 -44 -15 -45 17 -43 20 1 26 6 24 19 -2 10
1 14 7 10 7 -4 8 0 4 11 -4 11 -3 15 5 10 6 -3 16 3 22 15 8 15 9 19 1 15 -6
-4 -11 -2 -11 4 0 6 -5 8 -10 5 -6 -4 -7 -11 -4 -17 4 -7 2 -8 -5 -4 -6 4 -9
12 -6 17 4 5 -2 10 -12 10 -10 1 -4 5 12 8 17 4 35 4 41 -1 7 -5 23 5 44 29
45 54 153 163 195 198 20 17 42 36 50 43 7 6 16 12 20 12 4 0 25 13 48 29 55
37 147 83 147 74 0 -5 4 -2 9 6 5 8 32 15 70 17 33 2 64 4 68 5 5 1 10 0 13
-1 3 -1 57 -3 120 -5 169 -4 239 -15 384 -62 97 -31 236 -92 236 -104 0 -5
-29 -66 -64 -137 -35 -70 -67 -136 -70 -147 -9 -28 -88 -87 -137 -104 -35 -11
-43 -11 -56 1 -12 13 -9 25 26 93 23 43 41 82 41 87 0 20 -21 4 -49 -36 -33
-47 -147 -143 -177 -148 -24 -4 -21 8 17 91 23 48 27 67 18 75 -8 8 -10 7 -7
-4 3 -8 -8 -40 -23 -71 -66 -129 -35 -138 110 -32 l23 17 -6 -31 c-5 -22 -2
-35 10 -48 25 -25 80 -11 158 40 l30 20 -8 -25 c-52 -169 -70 -287 -52 -339 8
-22 6 -23 -18 -19 -14 3 -26 1 -26 -3 0 -10 34 -10 70 0 24 7 24 8 6 18 -21
11 -23 45 -10 146 8 69 69 249 116 342 42 84 107 195 113 195 12 0 128 -82
155 -109 17 -17 36 -31 41 -31 5 0 11 -11 15 -25 3 -14 12 -25 19 -25 7 0 21
-12 31 -27 9 -16 32 -43 51 -61 18 -19 33 -38 33 -43 0 -6 9 -19 20 -31 10
-12 17 -24 15 -28 -3 -4 4 -15 15 -25 11 -10 20 -24 20 -31 0 -7 6 -19 13 -26
23 -25 80 -174 90 -238 2 -14 7 -32 10 -40 7 -17 15 -56 24 -120 12 -83 4
-362 -10 -387 -4 -7 -9 -29 -23 -103 -16 -85 -95 -223 -134 -235 -11 -4 -21
-16 -22 -28 0 -12 -2 -28 -2 -36 -1 -8 -8 -16 -16 -19 -8 -2 -30 -18 -47 -35
-32 -30 -43 -24 -23 12 8 16 5 19 -18 19 -15 0 -34 -6 -42 -13 -16 -13 -60
-29 -60 -22 0 3 16 21 35 40 35 35 47 77 21 77 -30 0 -99 -141 -79 -161 6 -6
15 -4 23 6 11 13 10 14 -4 9 -11 -4 -15 -2 -11 7 7 19 55 21 55 3 0 -8 3 -14
8 -14 11 1 42 26 42 35 0 5 -10 0 -21 -11 -22 -19 -22 -19 -10 3 13 26 31 39
31 23 0 -6 5 -8 11 -4 8 5 8 1 0 -14 -16 -29 -14 -31 19 -29 19 1 32 9 36 20
7 23 44 43 44 24 0 -7 -4 -17 -8 -23 -4 -5 -5 -27 -1 -49 4 -29 7 -33 8 -13 2
45 19 78 60 116 22 21 40 40 40 45 1 4 1 12 1 18 0 5 4 8 9 4 5 -3 12 -1 16 5
4 6 10 8 14 5 5 -2 19 4 31 15 28 25 37 26 19 3 -11 -15 -10 -15 8 1 13 10 25
27 28 37 4 11 11 17 16 14 5 -4 9 1 9 9 0 9 4 16 8 16 19 0 121 292 138 395
21 133 4 454 -26 490 -5 7 -8 14 -5 17 16 16 -101 296 -148 355 -12 15 -40 54
-62 87 -50 75 -191 215 -275 274 -36 25 -77 56 -92 68 -40 32 -183 100 -283
134 -80 27 -131 39 -239 56 -40 6 -204 13 -208 8z m337 -119 c100 -20 225 -63
325 -113 63 -31 117 -59 120 -62 3 -3 25 -19 50 -35 184 -123 376 -426 414
-655 3 -19 9 -46 12 -60 9 -33 10 -305 2 -348 -8 -40 -18 -54 -19 -26 -3 91
-16 154 -30 154 -7 0 -8 -7 -4 -17 9 -23 17 -88 16 -133 0 -19 5 -37 11 -41
11 -7 10 -13 -19 -122 -2 -9 -9 -15 -14 -12 -5 4 -5 13 0 24 16 29 8 180 -9
191 -12 7 -12 13 -4 27 8 13 8 26 1 43 -5 14 -9 40 -8 58 1 18 -2 38 -6 45 -4
7 -9 22 -11 35 -11 84 -112 330 -171 418 -17 25 -31 49 -31 54 0 4 -4 10 -8
12 -4 2 -33 35 -64 73 -63 77 -138 147 -227 210 l-59 41 34 47 c39 54 40 57
17 57 -10 0 -31 -18 -46 -40 -30 -43 -42 -47 -72 -27 -28 18 -138 62 -210 84
-33 9 -62 20 -65 23 -3 3 -10 6 -16 7 -6 1 -24 5 -40 8 -71 14 -140 18 -291
19 -144 0 -187 7 -127 21 10 2 44 11 74 20 30 8 80 18 110 21 30 3 57 8 59 10
6 6 269 -3 306 -11z m-1055 -275 c0 -5 -4 -10 -10 -10 -5 0 -10 5 -10 10 0 6
5 10 10 10 6 0 10 -4 10 -10z m-140 -146 c0 -8 -4 -12 -10 -9 -5 3 -10 10 -10
16 0 5 5 9 10 9 6 0 10 -7 10 -16z m18 -69 c-3 -3 -9 2 -12 12 -6 14 -5 15 5
6 7 -7 10 -15 7 -18z m-198 -169 c0 -11 -19 -15 -25 -6 -3 5 1 10 9 10 9 0 16
-2 16 -4z m-34 -51 c-3 -8 -10 -15 -15 -15 -5 0 -4 11 2 25 12 25 23 16 13
-10z m-132 -250 c-4 -8 -8 -15 -10 -15 -2 0 -4 7 -4 15 0 8 4 15 10 15 5 0 7
-7 4 -15z m-7 -44 c0 -11 -5 -18 -9 -15 -4 3 -5 11 -1 19 7 21 12 19 10 -4z
m2013 -885 c0 -17 -46 -74 -53 -66 -5 5 40 80 48 80 3 0 5 -6 5 -14z"/>
<path d="M3715 4160 c10 -11 23 -20 28 -20 6 0 0 9 -13 20 -13 11 -25 20 -28
20 -3 0 3 -9 13 -20z"/>
<path d="M3770 4116 c0 -3 9 -10 20 -16 11 -6 20 -8 20 -6 0 3 -9 10 -20 16
-11 6 -20 8 -20 6z"/>
<path d="M3991 3873 c7 -12 15 -20 18 -17 3 2 -3 12 -13 22 -17 16 -18 16 -5
-5z"/>
<path d="M4115 3620 c3 -5 8 -10 11 -10 2 0 4 5 4 10 0 6 -5 10 -11 10 -5 0
-7 -4 -4 -10z"/>
<path d="M4126 3585 c4 -8 11 -15 16 -15 6 0 5 6 -2 15 -7 8 -14 15 -16 15 -2
0 -1 -7 2 -15z"/>
<path d="M4176 3445 c4 -8 8 -15 10 -15 2 0 4 7 4 15 0 8 -4 15 -10 15 -5 0
-7 -7 -4 -15z"/>
<path d="M4190 3405 c0 -5 5 -17 10 -25 5 -8 10 -10 10 -5 0 6 -5 17 -10 25
-5 8 -10 11 -10 5z"/>
<path d="M2912 4209 c-62 -41 -262 -224 -262 -240 0 -4 21 15 48 43 55 60 232
203 261 213 12 3 21 11 21 16 0 14 -3 12 -68 -32z"/>
<path d="M2998 4243 c17 -7 15 -28 -7 -71 -10 -20 -50 -98 -88 -172 -69 -136
-132 -287 -154 -370 -30 -119 -42 -252 -23 -270 5 -5 10 25 11 68 1 77 37 240
67 304 8 18 24 56 35 85 24 61 103 221 135 272 29 45 60 137 51 151 -3 5 -14
10 -23 9 -11 0 -12 -3 -4 -6z"/>
<path d="M2552 4102 c-52 -99 -122 -281 -122 -318 0 -7 7 -15 15 -18 11 -4 39
18 85 67 38 39 70 75 70 78 0 4 -29 -23 -64 -59 -36 -37 -68 -64 -71 -60 -4 4
27 90 68 193 41 102 71 187 67 190 -4 3 -26 -30 -48 -73z"/>
<path d="M3310 4025 c0 -8 9 -15 20 -15 11 0 20 7 20 15 0 8 -9 15 -20 15 -11
0 -20 -7 -20 -15z"/>
<path d="M3597 3966 c-67 -25 -84 -57 -52 -100 8 -11 15 -23 15 -28 0 -4 -25
-26 -56 -48 -58 -44 -68 -71 -32 -94 26 -16 65 19 102 89 30 56 34 60 96 81
36 12 60 23 54 23 -6 1 -37 -8 -70 -19 -32 -11 -63 -19 -69 -16 -5 2 -18 17
-28 34 -17 30 -17 31 10 50 35 24 93 38 93 22 0 -6 -5 -21 -11 -32 -10 -18 -9
-20 6 -15 9 4 19 7 21 7 12 0 2 49 -12 54 -20 8 -22 8 -67 -8z m-52 -216 c-23
-44 -75 -62 -75 -25 0 16 84 79 88 66 2 -5 -4 -24 -13 -41z"/>
<path d="M2620 3945 c-7 -9 -11 -17 -9 -20 3 -2 10 5 17 15 14 24 10 26 -8 5z"/>
<path d="M2960 3928 c-36 -35 -67 -127 -48 -140 23 -14 30 -9 95 59 77 80 88
98 65 101 -9 1 -32 3 -50 6 -26 3 -38 -2 -62 -26z m100 2 c0 -11 -121 -140
-131 -140 -35 0 30 118 79 144 26 13 52 12 52 -4z"/>
<path d="M3152 3561 c-18 -22 -32 -44 -32 -49 0 -19 -37 -41 -75 -45 l-40 -4
38 -1 c20 -1 37 -7 37 -12 0 -6 -13 -39 -29 -73 -16 -34 -32 -72 -35 -84 -5
-14 -15 -23 -27 -23 -11 0 -43 -10 -70 -21 -27 -12 -51 -20 -52 -18 -2 2 -13
17 -25 32 -25 33 -20 52 19 72 38 20 83 20 75 0 -3 -8 -9 -22 -12 -30 -9 -22
14 -18 26 4 15 29 12 41 -12 50 -29 10 -82 -6 -114 -36 l-26 -24 21 -34 c11
-19 18 -41 15 -48 -3 -6 -25 -24 -49 -39 -52 -31 -69 -73 -40 -94 28 -21 71
11 101 74 15 32 37 60 57 72 33 21 85 35 94 27 2 -3 -5 -27 -17 -54 -26 -59
-39 -110 -46 -188 -5 -49 -3 -63 10 -74 21 -18 33 -7 14 13 -33 32 14 206 111
409 22 47 46 87 53 90 7 2 48 3 91 2 42 -1 77 2 77 7 0 4 -36 8 -80 8 -44 0
-80 2 -80 5 0 3 16 29 35 58 19 28 35 55 35 59 0 18 -19 6 -48 -31z m-312
-390 c0 -20 -48 -76 -68 -79 -39 -6 -23 36 28 71 27 19 40 21 40 8z"/>
<path d="M1806 3574 c-5 -14 -4 -15 9 -4 17 14 19 20 6 20 -5 0 -12 -7 -15
-16z"/>
<path d="M2770 3463 c0 -5 24 -7 52 -5 95 5 104 9 26 11 -43 0 -78 -2 -78 -6z"/>
<path d="M2938 3463 c6 -2 18 -2 25 0 6 3 1 5 -13 5 -14 0 -19 -2 -12 -5z"/>
<path d="M3194 3419 c-10 -17 13 -36 27 -22 12 12 4 33 -11 33 -5 0 -12 -5
-16 -11z"/>
<path d="M3153 3348 c-11 -13 -28 -38 -38 -57 -65 -128 -17 -167 113 -95 60
34 65 35 59 15 -5 -20 14 -51 31 -51 16 0 67 40 78 62 10 18 21 22 57 23 l45
0 -5 -32 c-7 -40 2 -41 65 -8 26 14 54 25 64 25 9 0 20 5 24 11 8 13 -20 6
-85 -22 -24 -10 -45 -19 -47 -19 -2 0 3 19 11 41 20 55 18 69 -5 41 -36 -43
-115 -38 -103 7 3 11 -4 28 -17 41 l-22 22 -67 -70 c-68 -71 -132 -112 -175
-112 -39 0 -37 24 10 106 24 42 44 81 44 86 0 15 -16 8 -37 -14z m233 -80 c-4
-31 -15 -51 -36 -71 -17 -15 -36 -25 -41 -21 -24 14 18 114 47 114 8 0 14 5
14 10 0 6 5 10 11 10 7 0 9 -15 5 -42z"/>
<path d="M2669 3329 c-19 -12 -40 -28 -47 -37 -6 -9 -32 -24 -57 -33 l-45 -17
-1 26 c-1 26 -1 26 -10 -4 -5 -18 -25 -43 -46 -59 -62 -45 -223 -216 -229
-242 -9 -33 13 -53 49 -46 36 7 121 108 171 202 44 83 63 105 103 125 42 21
42 21 41 -15 -1 -35 15 -49 52 -47 24 1 24 1 -2 5 -21 3 -28 10 -28 26 0 31
11 43 45 51 66 16 95 55 57 75 -14 7 -28 5 -53 -10z m38 -27 c-10 -10 -24 -19
-33 -19 -12 0 -10 5 7 18 31 24 47 24 26 1z m-247 -126 c0 -16 -77 -131 -116
-175 -53 -59 -81 -78 -96 -63 -17 17 14 61 108 154 79 78 104 98 104 84z"/>
<path d="M2325 3286 c-32 -32 -42 -73 -22 -93 16 -17 42 -8 81 29 11 10 25 17
31 14 6 -2 18 9 27 24 14 26 14 27 -1 23 -10 -2 -23 3 -30 11 -20 23 -58 19
-86 -8z m73 -8 c18 -18 15 -25 -25 -53 -44 -29 -63 -32 -63 -7 1 21 18 45 45
60 25 15 28 15 43 0z"/>
<path d="M3770 3200 c-49 -52 -101 -82 -116 -67 -3 3 2 20 11 37 11 20 14 42
10 59 -7 25 -7 25 -22 -14 -24 -65 -26 -80 -10 -94 26 -21 96 24 176 112 48
53 5 24 -49 -33z"/>
<path d="M2769 3223 c-13 -16 -12 -17 4 -4 9 7 17 15 17 17 0 8 -8 3 -21 -13z"/>
<path d="M2688 3183 c7 -3 16 -2 19 1 4 3 -2 6 -13 5 -11 0 -14 -3 -6 -6z"/>
<path d="M2860 2879 c0 -5 -8 -9 -18 -7 -51 8 -64 -52 -37 -165 17 -73 21 -77
29 -32 6 29 11 35 32 35 25 0 54 -20 54 -37 0 -4 -13 -24 -30 -43 -26 -31 -32
-33 -49 -23 -13 8 -22 9 -26 3 -13 -21 -35 -8 -55 30 -11 21 -20 45 -19 52 0
7 5 1 11 -14 10 -30 15 -32 36 -20 9 6 10 21 1 68 -12 69 -22 82 -44 64 -12
-10 -15 -23 -10 -49 4 -26 3 -32 -4 -21 -10 13 -11 13 -12 0 0 -8 -2 -24 -5
-35 -7 -32 -3 -259 5 -327 3 -22 90 -51 151 -52 l65 -1 1 54 c1 46 5 58 27 75
14 12 41 47 60 78 32 53 34 61 30 125 -6 79 -20 116 -48 121 -11 2 -29 11 -39
21 -18 15 -19 15 -13 -24 4 -22 9 -52 13 -67 4 -19 2 -28 -5 -28 -7 0 -10 4
-6 10 8 12 -5 60 -16 60 -5 0 -9 -8 -10 -17 0 -11 -3 -13 -6 -5 -3 7 0 27 6
44 9 25 8 35 -5 49 -14 16 -14 20 1 48 14 29 14 32 0 38 -24 9 -46 -19 -61
-79 l-14 -53 6 55 c3 30 10 60 16 67 7 9 7 13 -1 13 -6 0 -11 -5 -11 -11z m0
-138 c0 -6 -4 -12 -8 -15 -5 -3 -9 1 -9 9 0 8 4 15 9 15 4 0 8 -4 8 -9z m97
-128 c-3 -10 -5 -4 -5 12 0 17 2 24 5 18 2 -7 2 -21 0 -30z"/>
<path d="M2961 2867 c8 -7 20 -19 25 -28 7 -13 13 -13 33 -3 l24 12 -31 16
c-17 9 -39 16 -49 16 -16 -1 -16 -2 -2 -13z"/>
<path d="M3051 2805 c2 -22 0 -45 -3 -51 -4 -5 -3 -16 3 -24 5 -8 9 -28 9 -45
l1 -30 11 25 c12 29 3 139 -13 155 -7 7 -10 -2 -8 -30z"/>
<path d="M3010 2815 c-10 -12 -10 -18 0 -30 19 -23 30 -18 30 15 0 33 -11 38
-30 15z"/>
<path d="M5214 2558 c-11 -13 -26 -39 -33 -58 -8 -19 -18 -40 -23 -46 -5 -7
-11 -36 -13 -65 l-4 -54 8 46 c5 25 21 69 35 97 22 43 31 52 54 53 23 2 24 2
5 6 -19 4 -21 8 -13 24 14 25 8 24 -16 -3z"/>
<path d="M4164 2543 c-11 -16 -23 -35 -26 -44 -5 -11 -14 -15 -31 -12 -21 4
-29 -1 -41 -25 -10 -20 -12 -33 -6 -37 6 -3 10 0 10 8 0 20 36 51 45 37 3 -6
-2 -18 -12 -28 -11 -9 -12 -12 -4 -7 12 8 13 4 8 -27 -3 -21 -3 -40 1 -42 4
-2 8 10 9 27 4 48 21 82 55 107 20 15 28 28 25 41 -3 10 -1 17 4 13 5 -3 9 0
9 5 0 21 -26 11 -46 -16z"/>
<path d="M3313 2548 c-6 -7 -16 -24 -22 -38 -10 -21 -9 -22 1 -7 35 50 40 54
33 24 -4 -19 -2 -26 5 -22 12 8 14 55 1 55 -5 0 -13 -6 -18 -12z"/>
<path d="M4965 2511 c-27 -53 -34 -58 -53 -39 -8 8 -15 8 -28 -3 -16 -12 -17
-12 -11 4 11 30 -10 18 -23 -13 -17 -41 -10 -45 24 -13 24 22 30 23 42 12 14
-15 8 -63 -7 -53 -11 7 -11 1 1 -31 5 -14 6 -24 1 -21 -5 3 -11 -3 -14 -14 -3
-11 -2 -20 3 -20 15 0 32 29 30 52 -4 41 0 48 33 62 28 12 34 11 51 -3 13 -11
17 -11 11 -2 -5 9 0 20 16 32 26 20 18 40 -9 21 -35 -25 -74 -43 -79 -38 -8 8
28 86 38 86 5 0 6 -8 3 -17 -5 -15 -3 -15 10 2 17 21 17 36 -2 43 -6 2 -23
-19 -37 -47z"/>
<path d="M5093 2533 c9 -2 23 -2 30 0 6 3 -1 5 -18 5 -16 0 -22 -2 -12 -5z"/>
<path d="M5148 2533 c7 -3 16 -2 19 1 4 3 -2 6 -13 5 -11 0 -14 -3 -6 -6z"/>
<path d="M4700 2507 c0 -7 -9 -31 -21 -52 -22 -45 -99 -221 -99 -229 0 -4 8
-6 18 -6 11 0 13 3 5 8 -8 5 1 33 32 97 45 93 90 154 103 141 4 -4 0 -13 -9
-19 -9 -7 -18 -16 -20 -22 -2 -5 -7 -9 -11 -7 -5 1 -8 -2 -8 -8 0 -16 12 -12
42 17 27 25 28 26 47 9 19 -17 19 -17 14 2 -3 14 1 21 16 25 12 3 21 10 21 16
0 16 -26 13 -40 -4 -15 -18 -37 -20 -43 -2 -3 9 -9 9 -26 -1 -24 -14 -25 -13
-11 22 6 17 6 26 0 26 -6 0 -10 -6 -10 -13z"/>
<path d="M4387 2477 c-12 -12 -31 -29 -41 -37 -18 -14 -18 -13 -12 8 7 22 -7
31 -19 12 -3 -5 -15 -15 -26 -21 -19 -10 -20 -9 -9 10 14 27 -1 27 -25 1 -23
-26 -39 -26 -25 -1 17 32 12 43 -17 39 -17 -2 -33 -13 -42 -30 -21 -36 -6 -48
22 -18 12 13 14 18 5 11 -21 -16 -24 1 -4 18 10 9 15 8 20 -4 3 -8 3 -22 0
-30 -7 -18 21 -21 32 -4 4 8 9 7 14 -2 7 -10 14 -9 34 5 36 23 33 4 -6 -41
-18 -20 -27 -33 -19 -29 9 6 12 5 9 -5 -3 -8 -11 -14 -19 -14 -7 0 -15 -8 -17
-17 -9 -45 52 11 64 58 3 13 22 32 41 44 45 27 52 25 23 -5 -13 -14 -21 -28
-17 -31 11 -11 39 5 44 26 3 11 10 20 16 20 6 0 2 7 -9 15 -16 13 -17 16 -4
24 10 7 16 7 18 1 2 -6 8 -8 13 -4 11 6 2 24 -12 24 -6 0 -20 -10 -32 -23z"/>
<path d="M5094 2473 c-27 -29 -28 -53 -4 -61 12 -4 13 -2 3 9 -9 11 -7 20 8
39 15 19 21 22 28 12 7 -11 9 -11 14 1 11 28 -23 28 -49 0z"/>
<path d="M3338 2471 c-14 -17 -14 -22 -3 -38 13 -17 14 -17 29 2 29 38 5 72
-26 36z m18 -27 c-4 -9 -9 -15 -11 -12 -3 3 -3 13 1 22 4 9 9 15 11 12 3 -3 3
-13 -1 -22z"/>
<path d="M3408 2471 c-10 -11 -13 -24 -7 -32 6 -11 13 -9 32 9 13 12 27 19 30
15 4 -3 7 -1 7 5 0 17 -10 15 -33 -5 -19 -17 -19 -17 -13 5 9 27 5 28 -16 3z"/>
<path d="M3573 2477 c-15 -18 -22 -44 -16 -51 4 -3 17 1 30 9 13 9 23 12 23 8
0 -12 20 20 20 32 0 15 -46 17 -57 2z m22 -17 c-10 -11 -20 -18 -23 -15 -7 6
18 35 31 35 5 0 2 -9 -8 -20z"/>
<path d="M4520 2470 c-15 -28 -12 -50 5 -44 8 4 15 10 15 16 0 5 -5 6 -11 2
-8 -4 -8 0 0 15 7 11 17 21 23 21 7 0 6 -5 -2 -15 -9 -10 -9 -15 -1 -15 6 0
11 -7 11 -15 0 -8 4 -15 9 -15 11 0 59 39 48 40 -5 0 -16 -7 -25 -16 -19 -20
-28 -4 -13 24 9 17 6 19 -19 20 -20 0 -34 -6 -40 -18z"/>
<path d="M3264 2458 c-3 -13 -12 -30 -19 -38 -7 -8 -12 -22 -12 -30 0 -9 -3
-28 -7 -44 -5 -21 -4 -27 6 -24 7 3 14 23 16 47 3 35 9 46 35 62 25 16 27 19
9 14 -21 -6 -23 -4 -17 14 3 12 4 21 1 21 -2 0 -8 -10 -12 -22z"/>
<path d="M3650 2450 c-14 -11 -31 -18 -37 -15 -7 2 -13 0 -13 -5 0 -18 28 -10
57 15 33 29 29 33 -7 5z"/>
<path d="M5120 2430 c-9 -6 -10 -10 -3 -10 6 0 15 5 18 10 8 12 4 12 -15 0z"/>
<path d="M4365 2318 c-45 -87 -62 -108 -87 -108 -22 0 -23 9 -2 38 20 30 5 28
-25 -3 -29 -31 -43 -32 -36 -2 5 19 2 23 -19 25 -17 1 -31 -7 -46 -27 -23 -34
-10 -53 19 -27 22 20 32 20 25 1 -7 -18 0 -19 27 -5 15 8 23 7 35 -5 8 -8 22
-15 31 -15 12 0 14 -8 9 -44 -4 -24 -3 -47 2 -50 5 -3 9 7 9 22 0 40 12 82 23
82 6 0 10 -7 10 -15 0 -8 5 -15 10 -15 6 0 9 3 9 8 -3 19 2 25 11 12 8 -13 10
-13 10 1 0 18 55 29 143 29 28 0 47 3 44 6 -8 8 -146 9 -153 1 -10 -10 -34 4
-34 20 0 10 6 12 20 8 19 -6 28 9 12 19 -14 8 -52 -23 -46 -38 5 -13 -24 -32
-34 -22 -2 3 16 43 41 90 25 48 42 86 38 86 -5 0 -25 -33 -46 -72z m-190 -88
c-10 -11 -20 -18 -23 -15 -3 3 3 14 13 25 10 11 20 18 23 15 3 -3 -3 -14 -13
-25z"/>
<path d="M4035 2237 c-4 -10 -5 -21 -1 -24 10 -10 18 4 13 24 -4 17 -4 17 -12
0z"/>
<path d="M4070 2229 c-13 -9 -12 -10 2 -5 13 4 17 0 15 -12 -1 -9 3 -17 8 -17
10 -1 8 25 -3 37 -4 4 -14 2 -22 -3z"/>
<path d="M4630 2226 c0 -2 18 -6 39 -8 22 -2 37 0 35 4 -5 8 -74 11 -74 4z"/>
<path d="M4783 2194 c33 -18 34 -41 4 -86 -30 -44 -40 -83 -27 -107 10 -19 97
-67 106 -59 2 3 -13 13 -35 22 -21 10 -43 28 -48 40 -11 24 -1 70 21 95 8 9
17 28 21 42 5 21 1 31 -21 48 -15 11 -32 21 -38 21 -6 -1 1 -8 17 -16z"/>
<path d="M5343 1872 c-82 -13 -156 -34 -263 -75 -49 -18 -70 -22 -87 -14 -24
10 -36 45 -27 74 5 13 2 12 -11 -5 -49 -67 54 -127 160 -94 17 6 71 26 120 45
54 21 137 42 208 53 64 11 117 22 117 26 0 11 -131 5 -217 -10z"/>
<path d="M5570 1880 c0 -5 4 -10 9 -10 6 0 13 5 16 10 3 6 -1 10 -9 10 -9 0
-16 -4 -16 -10z"/>
</g>
</svg>
